<svg id="visual" viewBox="0 0 320 1280" width="320" height="1280" xmlns="http://www.w3.org/2000/svg" xmlns:xlink="http://www.w3.org/1999/xlink" version="1.1"><rect x="0" y="0" width="320" height="1280" fill="#FFFFFF"></rect><path d="M0 1118L27 1118L27 1079L53 1079L53 948L80 948L80 998L107 998L107 1106L133 1106L133 1096L160 1096L160 913L187 913L187 896L213 896L213 962L240 962L240 1016L267 1016L267 1036L293 1036L293 955L320 955L320 1150L320 1281L320 1281L293 1281L293 1281L267 1281L267 1281L240 1281L240 1281L213 1281L213 1281L187 1281L187 1281L160 1281L160 1281L133 1281L133 1281L107 1281L107 1281L80 1281L80 1281L53 1281L53 1281L27 1281L27 1281L0 1281Z" fill="#272732" stroke-linecap="square" stroke-linejoin="miter"></path></svg>