<svg xmlns="http://www.w3.org/2000/svg" width="24" height="24" fill="none" id="name-card"><path fill="#000" fill-rule="evenodd" d="M9.25 11a2.75 2.75 0 1 1 5.5 0 2.75 2.75 0 0 1-5.5 0ZM12 9.75a1.25 1.25 0 1 0 0 2.5 1.25 1.25 0 0 0 0-2.5Z" clip-rule="evenodd"></path><path fill="#000" d="M9.25 18.027c0-.865.574-1.625 1.405-1.863a4.894 4.894 0 0 1 2.69 0 1.938 1.938 0 0 1 1.405 1.863v.473a.75.75 0 0 0 1.5 0v-.473a3.438 3.438 0 0 0-2.493-3.305 6.395 6.395 0 0 0-3.514 0 3.438 3.438 0 0 0-2.493 3.305v.473a.75.75 0 0 0 1.5 0v-.473Z"></path><path fill="#000" fill-rule="evenodd" d="M11.217 1.75c-.323 0-.619 0-.864.025-.267.027-.555.09-.825.27a1.75 1.75 0 0 0-.483.483c-.18.27-.243.558-.27.825a5.129 5.129 0 0 0-.022.402c-.602.007-1.125.026-1.577.077-.754.085-1.403.266-1.959.693-.26.2-.493.432-.692.692-.427.556-.608 1.205-.693 1.96-.082.729-.082 1.643-.082 2.778v5.6c0 1.367 0 2.47.117 3.337.12.9.38 1.658.981 2.26.602.602 1.36.86 2.26.982.867.116 1.97.116 3.337.116h3.11c1.367 0 2.47 0 3.337-.116.9-.122 1.658-.38 2.26-.982.602-.602.86-1.36.982-2.26.116-.867.116-1.97.116-3.337v-5.6c0-1.135 0-2.05-.082-2.779-.085-.754-.266-1.403-.693-1.959a3.75 3.75 0 0 0-.692-.692c-.556-.427-1.205-.608-1.96-.693-.451-.05-.974-.07-1.576-.077a5.144 5.144 0 0 0-.022-.402c-.027-.267-.09-.555-.27-.825a1.75 1.75 0 0 0-.483-.483c-.27-.18-.558-.243-.825-.27a9.124 9.124 0 0 0-.864-.025h-1.566Zm3.995 3.504c.582.007 1.05.024 1.444.069.62.07.962.199 1.214.392.156.12.295.26.415.415.193.252.322.594.392 1.214.072.636.073 1.466.073 2.656v5.5c0 1.435-.002 2.436-.103 3.192-.099.734-.28 1.122-.556 1.399-.277.277-.665.457-1.4.556-.754.101-1.756.103-3.191.103h-3c-1.435 0-2.437-.002-3.192-.103-.734-.099-1.122-.28-1.399-.556-.277-.277-.457-.665-.556-1.4-.101-.755-.103-1.756-.103-3.191V10c0-1.19.001-2.02.073-2.656.07-.62.199-.962.392-1.214.12-.156.26-.295.415-.415.252-.193.594-.322 1.214-.392.394-.045.862-.062 1.444-.069.033.236.1.484.257.718.128.191.292.355.483.483.27.18.558.243.825.27.245.025.541.025.864.025h1.566c.323 0 .619 0 .864-.025.267-.027.555-.09.825-.27a1.75 1.75 0 0 0 .483-.483 1.68 1.68 0 0 0 .257-.718Zm-4.708-1.987a.605.605 0 0 0-.146.027.246.246 0 0 0-.064.065.61.61 0 0 0-.027.145c-.016.16-.017.38-.017.746 0 .367 0 .585.017.746a.61.61 0 0 0 .027.145c.017.026.04.048.065.065.01.005.05.017.145.027.16.016.38.017.746.017h1.5c.367 0 .585 0 .746-.017a.607.607 0 0 0 .145-.027.25.25 0 0 0 .065-.065.61.61 0 0 0 .027-.145c.016-.16.017-.38.017-.746 0-.367 0-.585-.017-.746a.61.61 0 0 0-.027-.145.25.25 0 0 0-.065-.065.605.605 0 0 0-.145-.027 8.426 8.426 0 0 0-.746-.017h-1.5c-.367 0-.585 0-.746.017Zm-.149 1.937Z" clip-rule="evenodd"></path></svg>